<svg width="189" height="728" viewBox="0 0 189 728" fill="none" xmlns="http://www.w3.org/2000/svg">
<ellipse cx="82.5" cy="96" rx="22.5" ry="23" fill="white" />
<ellipse cx="144" cy="81.5" rx="5" ry="5.5" fill="white"/>
<ellipse cx="67" cy="152.5" rx="5" ry="5.5" fill="white"/>
<ellipse cx="3.5" cy="232.5" rx="15.5" ry="16.5" fill="white"/>
<ellipse cx="67.5" cy="278.5" rx="15.5" ry="16.5" fill="white"/>
<circle cx="45.5" cy="305.5" r="4.5" fill="white"/>
<circle cx="16" cy="356" r="20" fill="white"/>
<ellipse cx="-5.5" cy="437" rx="8.5" ry="8" fill="white"/>
<circle cx="53.5" cy="506.5" r="5.5" fill="white"/>
<circle cx="42.5" cy="658.5" r="6.5" fill="white"/>
<ellipse cx="-0.5" cy="698" rx="3.5" ry="4" fill="white"/>
<ellipse cx="96.5" cy="206" rx="26.5" ry="26" fill="white"/>
<ellipse cx="18.5" cy="102" rx="22.5" ry="23" fill="white"/>
<circle cx="35" cy="60" r="10" fill="white"/>
<ellipse cx="27.5" cy="10.5" rx="34.5" ry="32.5" fill="#FFA672"/>
<ellipse cx="110" cy="12.5" rx="18" ry="16.5" fill="#FFA672"/>
<ellipse cx="146.5" cy="38.5" rx="5.5" ry="4.5" fill="#FFA672"/>
<ellipse cx="173.5" cy="75.5" rx="9.5" ry="8.5" fill="#FFA672"/>
<circle cx="158" cy="96" r="6" fill="#FFA672"/>
<circle cx="2" cy="142" r="6" fill="#FFA672"/>
<circle cx="82" cy="228" r="6" fill="#FFA672"/>
<circle cx="80" cy="266" r="6" fill="#FFA672"/>
<circle cx="40.5" cy="291.5" r="3.5" fill="#FFA672"/>
<circle cx="15.5" cy="298.5" r="5.5" fill="#FFA672"/>
<circle cx="26.5" cy="420.5" r="5.5" fill="#FFA672"/>
<circle cx="28.5" cy="534.5" r="5.5" fill="#FFA672"/>
<circle cx="14.5" cy="654.5" r="11.5" fill="#FFA672"/>
<ellipse cx="-0.5" cy="570.5" rx="3.5" ry="4.5" fill="#FFA672"/>
<ellipse cx="103.5" cy="69.5" rx="24.5" ry="23.5" fill="#FFA672"/>
<ellipse cx="124.5" cy="139.5" rx="24.5" ry="23.5" fill="#FFA672"/>
<circle cx="34" cy="192" r="14" fill="#E7D2D8"/>
<ellipse cx="183" cy="91" rx="6" ry="7" fill="#E7D2D8"/>
<ellipse cx="30.5" cy="148" rx="8.5" ry="8" fill="#E7D2D8"/>
<ellipse cx="5.5" cy="249" rx="6.5" ry="7" fill="#E7D2D8"/>
<ellipse cx="33" cy="250.5" rx="9" ry="8.5" fill="#E7D2D8"/>
<circle cx="51" cy="294" r="2" fill="#E7D2D8"/>
<ellipse cx="61" cy="226.5" rx="9" ry="8.5" fill="#E7D2D8"/>
<ellipse cx="171" cy="12.5" rx="16" ry="16.5" fill="#E7D2D8"/>
<ellipse cx="171" cy="12.5" rx="16" ry="16.5" fill="#E7D2D8"/>
<circle cx="71.5" cy="21.5" r="6.5" fill="#E7D2D8"/>
<circle cx="71.5" cy="21.5" r="6.5" fill="#E7D2D8"/>
<ellipse cx="-4.5" cy="60.5" rx="10.5" ry="12.5" fill="#E7D2D8"/>
<ellipse cx="-4.5" cy="60.5" rx="10.5" ry="12.5" fill="#E7D2D8"/>
<ellipse cx="43.5" cy="52" rx="7.5" ry="8" fill="#E7D2D8"/>
<ellipse cx="43.5" cy="52" rx="7.5" ry="8" fill="#E7D2D8"/>
<path d="M45 59.8515C40.5 60.8381 36 56.7491 36 52.2816C36 47.0041 37.7528 48.7509 40 51.9587C43.5 56.955 43.5 56.8917 45 59.8515Z" fill="#CEBFC7"/>
<ellipse cx="82.5" cy="185" rx="8.5" ry="8" fill="#E7D2D8"/>
<path d="M82.5 193C78.0817 193 74 190.144 74 185.449C74 179.904 76.1363 181.904 78.5 185.449C82 190.699 82 190.5 82.5 193Z" fill="#CEBFC7"/>
<ellipse cx="34" cy="445.5" rx="8" ry="8.5" fill="#E7D2D8"/>
<ellipse cx="8" cy="504" rx="10" ry="11" fill="#E7D2D8"/>
<ellipse cx="17.5" cy="568" rx="5.5" ry="6" fill="#E7D2D8"/>
<ellipse cx="19.5" cy="605" rx="7.5" ry="8" fill="#E7D2D8"/>
<circle cx="15" cy="724" r="4" fill="#E7D2D8"/>
</svg>
