<svg width="184" height="743" viewBox="0 0 184 743" fill="none" xmlns="http://www.w3.org/2000/svg">
<circle cx="18.5" cy="25.5" r="14.5" fill="#E7D2D8"/>
<circle cx="117" cy="36" r="6" fill="#E7D2D8"/>
<circle cx="6" cy="106" r="6" fill="#E7D2D8"/>
<ellipse cx="141.5" cy="64" rx="9.5" ry="10" fill="#E7D2D8"/>
<circle cx="156" cy="163" r="10" fill="#E7D2D8"/>
<circle cx="104" cy="200" r="10" fill="#E7D2D8"/>
<circle cx="126" cy="240" r="10" fill="#E7D2D8"/>
<circle cx="153" cy="264" r="10" fill="#E7D2D8"/>
<circle cx="134" cy="307" r="2" fill="#E7D2D8"/>
<ellipse cx="151" cy="459.5" rx="9" ry="9.5" fill="#E7D2D8"/>
<ellipse cx="176" cy="517.5" rx="11" ry="11.5" fill="#E7D2D8"/>
<ellipse cx="165.5" cy="581.5" rx="5.5" ry="6.5" fill="#E7D2D8"/>
<ellipse cx="164" cy="618" rx="8" ry="9" fill="#E7D2D8"/>
<ellipse cx="167" cy="737" rx="5" ry="6" fill="#E7D2D8"/>
<circle cx="181" cy="264" r="10" fill="#E7D2D8"/>
<ellipse cx="152.5" cy="207" rx="15.5" ry="17" fill="#E7D2D8"/>
<circle cx="152.5" cy="74.5" r="10.5" fill="white"/>
<ellipse cx="43" cy="95.5" rx="6" ry="6.5" fill="white"/>
<ellipse cx="103.5" cy="112" rx="23.5" ry="23" fill="white"/>
<ellipse cx="117.5" cy="291" rx="14.5" ry="15" fill="white"/>
<circle cx="140.5" cy="319.5" r="4.5" fill="white"/>
<ellipse cx="169.5" cy="368.5" rx="19.5" ry="20.5" fill="white"/>
<ellipse cx="130" cy="519.5" rx="6" ry="6.5" fill="white"/>
<ellipse cx="140.5" cy="671" rx="6.5" ry="7" fill="white"/>
<ellipse cx="180.5" cy="246" rx="14.5" ry="15" fill="white"/>
<ellipse cx="89.5" cy="219" rx="26.5" ry="27" fill="white"/>
<ellipse cx="119.5" cy="168" rx="7.5" ry="8" fill="white"/>
<ellipse cx="171" cy="115.5" rx="22" ry="20.5" fill="white"/>
<ellipse cx="78" cy="26" rx="19" ry="20" fill="#FFA672"/>
<ellipse cx="43" cy="51.5" rx="5" ry="5.5" fill="#FFA672"/>
<circle cx="14.5" cy="89.5" r="10.5" fill="#FFA672"/>
<ellipse cx="31.5" cy="109" rx="5.5" ry="6" fill="#FFA672"/>
<ellipse cx="182.5" cy="159" rx="5.5" ry="6" fill="#FFA672"/>
<ellipse cx="103.5" cy="242" rx="5.5" ry="6" fill="#FFA672"/>
<ellipse cx="107.5" cy="280" rx="5.5" ry="6" fill="#FFA672"/>
<circle cx="145.5" cy="305.5" r="3.5" fill="#FFA672"/>
<ellipse cx="159" cy="434.5" rx="6" ry="6.5" fill="#FFA672"/>
<ellipse cx="156" cy="547.5" rx="6" ry="6.5" fill="#FFA672"/>
<ellipse cx="169" cy="667.5" rx="13" ry="13.5" fill="#FFA672"/>
<circle cx="170" cy="312" r="5" fill="#FFA672"/>
<ellipse cx="85" cy="85" rx="23" ry="24" fill="#FFA672"/>
<ellipse cx="63" cy="153.5" rx="25" ry="25.5" fill="#FFA672"/>
<ellipse cx="155.5" cy="30" rx="32.5" ry="30" fill="#FFA672"/>
</svg>
